<!-- icon666.com - MILLIONS vector ICONS FREE --><svg clip-rule="evenodd" fill-rule="evenodd" stroke-linejoin="round" stroke-miterlimit="2" viewBox="0 0 64 64" xmlns="http://www.w3.org/2000/svg"><path d="m26.401 46c3.863 0 7 3.137 7 7s-3.137 7-7 7c-3.864 0-7-3.137-7-7s3.136-7 7-7zm18 0c3.863 0 7 3.137 7 7s-3.137 7-7 7c-3.864 0-7-3.137-7-7s3.136-7 7-7zm-27.401-24h38l-4 22h-32l-4-22v-8h-6v-2h8zm18.229 9.25 5.121-5.25 1.707 1.75-5.121 5.25 5.121 5.25-1.707 1.75-5.121-5.25-5.121 5.25-1.707-1.75 5.121-5.25-5.121-5.25 1.707-1.75z"></path></svg>